<svg xmlns="http://www.w3.org/2000/svg" width="512" height="512" viewBox="0 0 512 512">
<defs>
<linearGradient id="bg" x1="0" y1="0" x2="1" y2="1"><stop offset="0" stop-color="#131f38"/><stop offset="1" stop-color="#060814"/></linearGradient>
<linearGradient id="star" x1="0" y1="0" x2="1" y2="1"><stop offset="0" stop-color="#89d8ff"/><stop offset="1" stop-color="#d9b7ff"/></linearGradient>
<radialGradient id="glow" cx=".5" cy=".4" r=".6"><stop offset="0" stop-color="#89d8ff" stop-opacity=".3"/><stop offset="1" stop-color="#89d8ff" stop-opacity="0"/></radialGradient>
</defs>
<rect width="512" height="512" rx="120" fill="url(#bg)"/>
<rect width="512" height="512" rx="120" fill="url(#glow)"/>
<g stroke="#ffffff" stroke-opacity=".05" stroke-width="2">
<line x1="0" y1="170" x2="512" y2="170"/><line x1="0" y1="342" x2="512" y2="342"/>
<line x1="170" y1="0" x2="170" y2="512"/><line x1="342" y1="0" x2="342" y2="512"/>
</g>
<path fill="url(#star)" d="M 256 96 C 268 186 296 214 386 226 C 296 238 268 266 256 356 C 244 266 216 238 126 226 C 216 214 244 186 256 96 Z"/>
<circle cx="186" cy="408" r="17" fill="#ffe08a"/>
<circle cx="256" cy="420" r="17" fill="#a7f3b7"/>
<circle cx="326" cy="408" r="17" fill="#8fd7ff"/>
</svg>